<?xml version="1.0" standalone="no"?>
<!DOCTYPE svg PUBLIC "-//W3C//DTD SVG 20010904//EN"
 "http://www.w3.org/TR/2001/REC-SVG-20010904/DTD/svg10.dtd">
<svg version="1.0" xmlns="http://www.w3.org/2000/svg"
 width="430.000000pt" height="430.000000pt" viewBox="0 0 430.000000 430.000000"
 preserveAspectRatio="xMidYMid meet">
<metadata>
Created by potrace 1.14, written by Peter Selinger 2001-2017
</metadata>
<g transform="translate(0.000000,430.000000) scale(0.100000,-0.100000)"
fill="#000000" stroke="none">
<path d="M2120 3826 c0 -8 5 -18 10 -21 31 -19 -26 -55 -89 -55 -88 0 -184
-133 -166 -229 3 -20 8 -52 10 -71 4 -42 32 -110 45 -110 5 0 13 -11 16 -26 7
-27 -16 -53 -49 -54 -10 0 -36 -9 -58 -20 -31 -16 -39 -25 -34 -40 5 -16 0
-20 -32 -25 -73 -11 -116 -27 -139 -50 -13 -13 -33 -26 -44 -30 -12 -4 -36
-19 -53 -34 -31 -27 -64 -46 -117 -70 -14 -6 -32 -15 -40 -20 -25 -15 -161
-69 -230 -91 -36 -12 -74 -27 -85 -34 -11 -7 -33 -16 -50 -20 -16 -4 -48 -15
-70 -25 -22 -11 -62 -24 -89 -30 -26 -7 -54 -18 -62 -25 -7 -8 -49 -17 -97
-21 -46 -3 -90 -11 -98 -16 -16 -10 -15 -11 26 -14 17 -1 36 2 43 8 8 6 12 5
12 -5 0 -20 -20 -37 -36 -31 -14 5 -93 -38 -116 -65 -27 -30 -28 -69 -2 -82
12 -7 30 -10 40 -6 9 3 22 2 29 -4 10 -8 37 -3 101 20 48 17 94 36 101 41 7 6
26 8 43 4 24 -5 37 -2 53 12 12 11 63 30 113 42 50 12 139 39 196 61 104 39
218 60 330 60 44 0 49 -2 78 -44 16 -25 30 -53 30 -63 0 -11 7 -42 15 -69 8
-27 19 -83 25 -124 6 -41 13 -83 16 -92 4 -13 1 -16 -10 -12 -12 5 -16 0 -16
-21 0 -23 2 -26 15 -15 8 7 15 10 15 7 0 -8 -49 -57 -57 -57 -4 0 -2 5 5 12 8
8 5 14 -15 25 -14 7 -31 13 -39 13 -8 0 -19 9 -26 20 -7 11 -21 20 -30 20 -28
0 -21 19 9 26 17 5 28 3 31 -4 6 -20 20 -3 15 18 -6 23 -33 26 -83 9 -32 -12
-42 -7 -53 25 -2 5 -16 6 -33 2 -27 -7 -28 -8 -10 -21 18 -13 17 -14 -7 -20
-32 -8 -40 -27 -23 -59 12 -23 14 -24 39 -11 38 20 34 3 -5 -20 -21 -12 -33
-15 -36 -7 -3 10 -46 -25 -48 -40 -1 -5 -2 -13 -3 -19 0 -6 -10 -8 -21 -4 -12
4 -20 2 -20 -4 0 -8 -7 -7 -20 1 -24 15 -26 34 -4 42 26 10 36 7 30 -9 -9 -24
12 -17 25 7 15 28 20 68 9 68 -13 0 -32 -28 -26 -39 3 -5 -3 -7 -14 -4 -22 6
-26 23 -9 40 7 7 8 17 3 25 -5 7 -9 18 -9 23 0 22 -71 16 -108 -10 -21 -14
-42 -25 -47 -25 -5 0 -12 -5 -16 -12 -5 -8 3 -9 29 -5 21 3 37 2 37 -4 0 -5
-5 -9 -12 -9 -6 0 -8 -3 -5 -7 4 -3 18 4 31 16 14 13 32 21 43 18 17 -4 17 -4
-2 -12 -11 -4 -28 -15 -37 -23 -9 -8 -41 -16 -69 -18 -80 -7 -82 -23 -4 -31
25 -3 45 -10 45 -15 0 -6 11 -7 25 -4 15 4 25 2 25 -4 0 -10 -134 -5 -167 5
-6 2 -16 -2 -22 -9 -8 -10 -7 -17 5 -27 15 -12 13 -14 -16 -20 -42 -9 -97 7
-105 30 -7 24 -53 45 -94 42 -18 -2 -37 2 -41 8 -7 13 -40 4 -40 -11 0 -5 4
-6 10 -3 6 3 10 1 10 -4 0 -17 -27 -13 -34 5 -4 10 -12 14 -22 10 -23 -9 -64
4 -64 20 0 8 -4 14 -10 14 -5 0 -10 -5 -10 -10 0 -15 -46 -5 -85 19 -18 10
-63 29 -99 41 -37 13 -69 27 -72 31 -3 5 -12 9 -20 9 -9 0 -48 26 -87 59 -90
73 -121 89 -191 97 l-56 7 0 -601 0 -600 35 4 c19 2 49 13 67 24 70 41 97 52
119 45 12 -4 19 -3 16 1 -3 5 13 10 36 11 22 1 43 5 46 10 6 8 25 12 73 16 16
1 28 5 28 8 0 5 100 33 125 34 6 0 16 4 23 9 14 8 55 16 332 65 91 16 244 45
340 64 96 19 202 36 235 38 33 2 66 8 74 13 8 6 63 12 122 14 l109 4 1 27 c1
14 5 -3 10 -39 11 -84 18 -597 8 -630 -4 -14 -7 -19 -8 -12 -1 6 -8 12 -16 12
-8 0 -15 7 -15 15 0 8 -4 15 -10 15 -5 0 -10 -10 -10 -22 -1 -20 -2 -21 -13
-7 -8 11 -28 15 -64 15 -58 -1 -74 -12 -76 -50 -2 -26 -11 -34 -21 -17 -10 15
-95 34 -108 24 -14 -11 -64 -10 -75 0 -10 11 -61 8 -68 -3 -3 -5 -19 -10 -35
-10 -16 0 -32 -4 -35 -10 -3 -5 -14 -10 -24 -10 -23 0 -44 -25 -48 -56 -3 -16
1 -24 12 -24 25 0 17 -17 -11 -23 -35 -6 -65 2 -57 17 4 6 0 6 -9 -2 -13 -11
-16 -8 -20 18 -5 32 7 42 15 13 4 -14 5 -13 6 4 2 38 -34 52 -136 52 -77 1
-93 -2 -93 -14 0 -9 -8 -18 -17 -21 -17 -5 -105 -45 -146 -65 -9 -5 -26 -14
-37 -19 -11 -6 -29 -15 -40 -20 -11 -6 -30 -10 -42 -10 -35 0 -88 -37 -99 -69
-7 -20 -17 -28 -33 -28 -13 0 -36 -8 -52 -16 -16 -9 -49 -26 -72 -38 -24 -12
-46 -28 -49 -36 -3 -7 -11 -13 -19 -13 -7 0 -24 -15 -38 -32 -21 -29 -24 -44
-25 -120 -1 -48 4 -90 9 -93 6 -3 10 -23 10 -43 0 -37 19 -65 84 -120 23 -19
25 -25 14 -42 -14 -22 -24 -25 -33 -10 -11 18 -71 11 -90 -10 -12 -14 -25 -18
-42 -14 -33 9 -102 -13 -135 -41 -24 -20 -28 -32 -28 -75 l0 -50 100 0 c82 0
108 4 141 20 22 12 48 19 57 16 23 -7 93 17 103 36 5 8 34 37 65 63 47 40 66
50 110 56 40 5 68 18 117 53 36 25 68 46 72 46 4 0 33 11 64 24 31 13 76 30
101 37 25 7 63 26 85 42 22 15 51 35 63 44 28 19 138 21 172 3 15 -8 30 -9 48
-1 15 5 47 12 72 15 59 6 100 16 125 31 11 7 45 21 75 30 30 10 65 25 78 33
17 11 22 12 22 1 0 -8 5 -5 14 6 12 16 11 21 -1 33 -10 11 -11 17 -2 28 6 8
16 14 22 14 6 0 2 -7 -9 -15 -18 -13 -18 -14 4 -8 13 3 26 12 29 19 3 8 20 14
39 14 39 0 38 -1 25 128 -4 39 -4 72 0 72 7 0 12 -55 25 -253 5 -73 3 -97 -6
-97 -7 0 -10 7 -6 15 7 19 -32 41 -46 27 -7 -7 -3 -12 12 -17 13 -4 19 -12 16
-21 -3 -8 1 -14 9 -14 10 0 15 -10 15 -30 0 -16 -4 -30 -10 -30 -20 0 -9 -19
12 -22 14 -2 24 -12 28 -27 6 -24 30 -42 30 -22 0 6 7 8 15 5 10 -4 13 -13 10
-25 -4 -12 -1 -21 9 -25 10 -4 16 -18 16 -40 0 -19 -2 -34 -5 -34 -15 0 -53
24 -49 31 3 5 -2 9 -12 9 -15 0 -15 -2 -2 -22 16 -23 63 -34 105 -23 21 5 24
10 18 34 -4 20 -1 34 10 45 10 9 14 23 11 31 -3 8 0 14 6 12 16 -3 27 66 22
133 -2 30 -5 75 -7 100 l-2 44 44 2 c24 1 80 -7 125 -18 44 -10 103 -23 130
-28 27 -5 51 -11 53 -14 6 -5 25 -143 24 -171 0 -11 5 -23 12 -27 7 -5 -1 -6
-18 -4 -27 4 -28 3 -11 -7 11 -7 30 -22 43 -34 12 -12 33 -25 45 -28 l23 -7
-24 25 c-13 15 -27 24 -32 22 -4 -3 -10 -1 -13 4 -4 5 8 12 24 16 38 8 63 -10
57 -42 -4 -20 0 -23 24 -23 26 0 29 3 29 35 0 19 5 35 11 35 8 0 10 14 6 39
-4 33 -2 40 15 44 16 5 20 12 16 36 -4 29 -2 31 38 37 23 3 50 3 61 0 10 -3
24 -2 32 3 8 5 35 3 65 -5 28 -7 74 -13 101 -12 66 2 225 -34 267 -60 18 -11
65 -39 105 -62 42 -24 91 -63 118 -93 25 -28 45 -46 45 -38 0 11 3 11 15 1 8
-7 15 -19 15 -27 0 -7 18 -38 40 -67 28 -39 41 -68 46 -105 l7 -51 373 0 374
0 0 70 c0 77 -8 85 -56 53 -22 -14 -27 -14 -34 -2 -7 11 -12 11 -22 1 -14 -14
-32 -16 -23 -3 8 13 -10 22 -30 15 -14 -6 -14 -8 1 -26 10 -10 24 -16 31 -14
7 3 13 1 13 -4 0 -18 -45 -10 -58 10 -7 12 -17 18 -22 15 -5 -3 -14 3 -19 14
-9 16 -8 18 11 13 15 -4 19 -2 14 7 -10 16 125 12 137 -4 6 -7 10 -6 13 1 3 7
14 10 24 7 20 -5 20 3 20 396 0 390 -1 401 -19 401 -11 0 -23 -4 -26 -10 -9
-14 -52 -13 -57 2 -3 7 -29 13 -63 15 -46 2 -61 -1 -72 -15 -12 -16 -13 -16
-7 1 5 14 0 17 -23 17 -30 0 -57 29 -48 52 4 11 39 13 160 11 l155 -3 0 22 c0
14 -3 18 -8 11 -5 -8 -22 -10 -49 -6 -54 7 -45 23 13 23 l44 0 -1 96 c-1 85
-2 95 -17 89 -17 -7 -40 -13 -54 -14 -18 -2 -6 -31 11 -31 30 0 55 -29 40 -46
-9 -10 -15 -12 -23 -4 -5 5 -18 10 -27 10 -19 0 -31 23 -23 43 4 11 -15 15
-83 20 -48 4 -89 3 -91 -2 -1 -4 -16 -5 -32 -3 -25 4 -30 1 -30 -17 0 -11 -5
-21 -11 -21 -5 0 -7 -6 -3 -12 4 -7 -10 4 -31 24 -21 21 -47 38 -58 38 -18 0
-17 13 1 16 24 5 52 17 52 23 0 4 -5 12 -12 19 -17 17 37 34 87 26 38 -5 45
-3 81 32 30 29 53 40 102 51 35 7 77 11 93 8 l29 -5 0 119 0 119 -42 -5 c-24
-3 -68 -14 -98 -25 -30 -11 -68 -22 -85 -25 -16 -3 -59 -21 -95 -40 -38 -20
-66 -30 -68 -24 -7 20 -70 13 -85 -10 -13 -18 -18 -19 -37 -9 -17 9 -25 9 -38
-3 -9 -9 -37 -23 -62 -32 -25 -9 -55 -22 -67 -27 -12 -6 -28 -8 -36 -5 -16 6
-97 -30 -97 -42 0 -4 -11 -13 -25 -19 -24 -11 -36 -52 -16 -52 15 0 19 -63 6
-95 -20 -50 -39 -59 -123 -58 -65 1 -83 -2 -114 -23 -44 -28 -48 -29 -48 -9 0
8 -9 15 -20 15 -29 0 -35 -3 -34 -17 3 -20 -13 -15 -31 10 l-16 22 -18 -24
c-15 -20 -20 -22 -38 -11 -26 17 -51 7 -63 -25 -5 -14 -16 -25 -23 -25 -9 0
-13 -13 -11 -42 2 -69 3 -70 23 -63 11 3 22 1 25 -4 4 -5 -3 -12 -13 -16 -24
-7 -69 14 -52 24 7 5 5 14 -9 29 -12 12 -22 22 -23 22 -54 10 -80 10 -94 -1
-13 -11 -17 -10 -29 6 -8 10 -12 27 -8 37 3 12 0 18 -9 18 -8 0 -22 9 -31 19
-21 23 -66 31 -81 15 -5 -7 -22 -14 -38 -18 -23 -5 -29 -2 -37 19 -6 15 -10
44 -10 66 0 22 -4 48 -9 57 -5 10 -12 53 -15 97 -3 44 -10 121 -16 170 -6 50
-8 140 -5 202 3 61 2 129 -3 150 -6 21 -13 65 -16 98 -5 47 -3 56 5 41 6 -10
12 -41 13 -69 1 -33 6 -52 16 -57 38 -19 91 -30 142 -30 31 0 100 -4 154 -9
55 -6 146 -12 204 -16 145 -8 212 -15 235 -25 40 -17 205 -30 379 -30 97 0
185 -4 194 -9 22 -11 134 -20 335 -27 l157 -6 0 41 c0 37 -2 41 -25 41 -15 0
-25 -6 -25 -14 0 -9 -10 -13 -25 -12 -14 0 -25 7 -25 14 0 7 -5 10 -10 7 -6
-4 -8 -11 -5 -16 8 -12 -54 -15 -147 -7 -42 3 -51 22 -15 32 12 3 79 11 150
18 l127 12 0 443 0 443 -26 6 c-37 10 -132 -1 -184 -21 -25 -9 -70 -20 -100
-25 -60 -8 -158 -41 -260 -88 -47 -22 -81 -30 -120 -30 -30 -1 -89 -5 -130
-11 -41 -6 -113 -15 -160 -21 -173 -21 -236 -33 -261 -51 -14 -10 -29 -16 -33
-12 -10 10 -43 -26 -49 -53 -2 -13 0 -24 4 -24 5 0 9 12 9 27 l0 27 17 -24
c12 -17 13 -25 5 -28 -7 -2 -19 -11 -28 -19 -8 -9 -30 -17 -47 -19 -78 -8
-117 -16 -122 -24 -3 -5 -24 -14 -45 -20 -22 -6 -40 -15 -40 -19 0 -5 -9 -11
-20 -14 -13 -3 -20 0 -20 8 0 14 -10 18 -70 31 -31 6 -33 5 -21 -10 7 -9 21
-16 30 -16 9 0 24 -7 34 -14 15 -11 15 -15 3 -19 -8 -3 -17 -1 -19 6 -3 9 -10
7 -23 -4 -22 -19 -68 -31 -135 -34 l-47 -3 -23 92 -24 92 27 -4 c18 -3 28 0
28 8 0 7 -7 10 -15 6 -8 -3 -15 -1 -15 3 0 19 26 18 62 -2 22 -12 34 -25 31
-33 -3 -10 3 -14 18 -14 19 0 21 2 9 10 -8 5 -13 10 -10 10 4 0 -27 35 -67 78
-87 91 -88 101 -25 206 22 36 43 82 46 101 5 27 13 36 34 42 48 13 115 7 237
-20 66 -15 143 -32 170 -38 56 -11 148 -35 215 -55 25 -8 79 -16 120 -18 41
-2 89 -9 107 -14 17 -6 34 -8 37 -5 3 3 29 -6 57 -21 29 -14 62 -26 74 -26 11
0 31 -7 44 -16 16 -12 26 -13 34 -5 8 8 -2 16 -36 31 -26 12 -47 22 -47 24 0
1 23 3 52 4 36 1 59 -5 79 -19 43 -30 58 -22 19 11 -30 25 -44 30 -95 30 -46
1 -55 3 -37 10 12 5 22 12 22 14 0 3 -21 12 -47 19 -26 8 -50 20 -54 28 -4 8
-12 26 -19 40 -8 17 -26 31 -52 40 -22 7 -43 19 -46 27 -10 28 -208 92 -282
92 -21 0 -52 14 -91 41 -55 39 -65 43 -157 52 -53 5 -120 10 -148 11 -32 0
-59 7 -70 17 -11 9 -59 38 -107 64 -75 40 -95 47 -127 42 -25 -3 -46 0 -57 9
-10 7 -30 14 -45 14 -21 0 -28 5 -28 19 0 11 -4 23 -10 26 -16 10 -12 63 6 73
36 20 51 91 46 213 -6 155 -18 180 -131 272 -26 21 -31 21 -31 3z m-1540
-1276 c0 -5 -8 -10 -17 -10 -15 0 -16 2 -3 10 19 12 20 12 20 0z m925 -250
c-11 -5 -27 -9 -35 -9 -9 0 -8 4 5 9 11 5 27 9 35 9 9 0 8 -4 -5 -9z m-45 -24
c0 -2 -7 -6 -15 -10 -8 -3 -15 -1 -15 4 0 6 7 10 15 10 8 0 15 -2 15 -4z m-50
-20 c0 -3 -4 -8 -10 -11 -5 -3 -10 -1 -10 4 0 6 5 11 10 11 6 0 10 -2 10 -4z
m310 -53 c0 -25 -15 -12 -17 14 -1 19 1 22 8 12 5 -8 9 -20 9 -26z m-953 -51
c7 -9 11 -18 8 -20 -4 -5 -75 37 -75 44 0 10 56 -10 67 -24z m323 18 c0 -13
-11 -13 -30 0 -12 8 -11 10 8 10 12 0 22 -4 22 -10z m328 -65 c-3 -3 -9 2 -12
12 -6 14 -5 15 5 6 7 -7 10 -15 7 -18z m-238 -5 c0 -5 -4 -10 -9 -10 -6 0 -13
5 -16 10 -3 6 1 10 9 10 9 0 16 -4 16 -10z m169 -4 c9 -11 6 -12 -15 -8 -19 3
-22 7 -12 13 16 11 14 11 27 -5z m-209 -26 c0 -5 -7 -10 -15 -10 -8 0 -15 5
-15 10 0 6 7 10 15 10 8 0 15 -4 15 -10z m412 -2 c-7 -7 -16 -7 -28 0 -14 8
-13 10 10 10 18 0 24 -4 18 -10z m-152 -16 c0 -15 -22 -30 -36 -25 -24 9 -16
33 11 33 14 0 25 -4 25 -8z m44 2 c9 -3 16 -10 16 -14 0 -12 -33 -5 -38 8 -4
14 0 15 22 6z m971 -33 c-3 -5 -31 -19 -62 -31 -65 -24 -279 -38 -353 -22 -42
9 -42 10 -12 11 118 4 329 25 365 36 52 16 70 18 62 6z m-748 -117 c-3 -3 -12
-4 -19 -1 -8 3 -5 6 6 6 11 1 17 -2 13 -5z m103 -44 c0 -22 -4 -40 -10 -40 -5
0 -10 5 -10 11 0 6 -6 9 -12 6 -19 -6 -68 21 -68 38 0 13 15 18 73 22 25 2 27
0 27 -37z m2195 -51 c4 -6 5 -12 3 -14 -7 -7 -88 8 -88 16 0 13 78 11 85 -2z
m-1785 -134 c6 -55 11 -110 11 -122 0 -12 4 -35 10 -50 6 -15 13 -55 15 -88 1
-33 10 -80 18 -104 9 -24 16 -75 16 -113 0 -70 0 -70 -25 -64 -14 4 -25 2 -25
-3 0 -15 -33 -22 -42 -9 -6 11 -10 11 -16 0 -10 -14 -72 -13 -72 2 0 5 4 37 9
70 22 145 34 244 41 359 5 77 14 141 26 174 11 28 20 50 21 49 1 -1 7 -46 13
-101z m2000 -479 c0 -2 -8 -10 -17 -17 -16 -13 -17 -12 -4 4 13 16 21 21 21
13z m10 -46 c0 -5 -2 -10 -4 -10 -3 0 -8 5 -11 10 -3 6 -1 10 4 10 6 0 11 -4
11 -10z m30 0 c0 -5 -4 -10 -10 -10 -5 0 -10 5 -10 10 0 6 5 10 10 10 6 0 10
-4 10 -10z m-1140 -74 c0 -2 -7 -6 -15 -10 -8 -3 -15 -1 -15 4 0 6 7 10 15 10
8 0 15 -2 15 -4z m815 -38 c-4 -10 -2 -18 4 -18 18 0 -5 -43 -25 -47 -10 -2
-59 0 -109 3 -80 6 -86 8 -55 16 39 10 68 33 56 45 -4 4 -11 1 -16 -7 -6 -8
-10 -12 -10 -8 0 3 -3 14 -6 22 -5 14 5 16 80 15 79 -2 86 -4 81 -21z m58 15
c-7 -2 -21 -2 -30 0 -10 3 -4 5 12 5 17 0 24 -2 18 -5z m-283 -25 c0 -4 -12
-9 -27 -10 -42 -2 -47 -3 -60 -11 -9 -6 -13 -2 -13 10 0 16 8 19 50 19 28 0
50 -3 50 -8z m-1873 -45 c-3 -10 -5 -4 -5 12 0 17 2 24 5 18 2 -7 2 -21 0 -30z
m926 -3 c-4 -16 0 -20 18 -20 l24 0 -25 -20 c-14 -11 -23 -20 -20 -21 3 0 13
-2 23 -4 29 -5 33 -15 9 -22 -19 -4 -20 -8 -10 -20 10 -12 9 -18 -7 -29 -10
-8 -29 -14 -42 -14 -13 0 -23 -6 -23 -14 0 -21 -23 -25 -37 -7 -11 14 -13 13
-19 -6 -12 -43 -34 -27 -35 25 0 26 -2 73 -5 104 l-5 57 43 4 c108 9 117 8
111 -13z m897 10 c0 -5 -8 -10 -17 -10 -15 0 -16 2 -3 10 19 12 20 12 20 0z
m-1828 -82 c-3 -61 -12 -60 -12 2 0 29 3 50 7 47 3 -4 6 -26 5 -49z m-792 17
c0 -8 -2 -15 -4 -15 -2 0 -6 7 -10 15 -3 8 -1 15 4 15 6 0 10 -7 10 -15z
m1327 -75 l6 -62 -31 16 c-17 9 -34 20 -37 26 -17 27 -144 0 -137 -30 2 -7 0
-20 -3 -28 -5 -13 -8 -12 -20 4 -11 14 -17 16 -23 7 -7 -10 -11 -10 -25 0 -19
14 -11 71 11 73 6 1 21 2 32 3 11 0 20 7 20 15 0 16 34 31 50 21 5 -3 10 -1
10 4 0 6 17 11 38 11 20 0 48 6 62 13 32 17 38 8 47 -73z m1178 61 c17 -7 14
-10 -19 -21 -32 -10 -40 -10 -47 1 -5 8 -9 17 -9 22 0 9 49 8 75 -2z m208 3
c13 -13 -20 -31 -68 -37 -43 -6 -48 -5 -33 7 10 7 15 16 12 19 -3 3 3 3 14 0
11 -2 23 0 26 6 8 12 39 15 49 5z m350 -1 c-25 -10 -12 -18 34 -21 56 -4 59
-6 42 -25 -11 -12 -16 -12 -27 0 -8 7 -35 13 -65 13 -29 0 -59 5 -67 10 -11 7
-6 10 22 10 20 0 40 5 43 10 3 6 12 10 18 9 9 0 9 -2 0 -6z m130 0 c-7 -2 -19
-2 -25 0 -7 3 -2 5 12 5 14 0 19 -2 13 -5z m-603 -13 c0 -5 -12 -10 -27 -9
-25 0 -26 1 -8 9 27 12 35 12 35 0z m-2076 -19 c-4 -9 -6 -25 -6 -37 2 -36
-93 -67 -103 -34 -3 10 -13 21 -23 24 -9 4 -30 14 -45 22 -16 9 -38 13 -51 10
-25 -6 -66 -72 -66 -106 0 -15 -5 -20 -14 -17 -7 3 -18 1 -24 -5 -7 -7 -19 0
-39 21 -16 16 -41 35 -55 40 -53 20 -141 -26 -151 -79 -5 -23 -12 -30 -29 -30
-13 0 -33 -11 -45 -24 -19 -20 -29 -22 -77 -18 -38 3 -56 1 -56 -7 0 -6 10
-11 23 -11 12 0 29 -5 37 -10 13 -8 12 -10 -4 -10 -15 0 -17 -3 -9 -11 7 -7
19 -8 30 -4 10 5 24 7 30 6 7 -1 22 3 33 9 11 6 26 7 33 3 6 -4 19 -6 29 -5
30 5 29 -16 -1 -34 -17 -10 -28 -21 -25 -26 3 -4 2 -8 -3 -8 -114 -7 -173 -5
-178 8 -4 10 -14 13 -36 8 -30 -6 -30 -5 -24 27 9 42 11 43 33 24 20 -19 52
-23 52 -7 0 6 -6 10 -14 10 -7 0 -25 9 -39 20 -20 16 -27 17 -36 6 -6 -7 -8
-16 -4 -19 3 -4 2 -7 -4 -7 -6 0 -15 6 -21 13 -13 15 1 42 17 33 6 -4 11 0 11
8 0 9 7 16 15 16 8 0 15 -4 15 -10 0 -5 7 -10 15 -10 8 0 15 7 15 16 0 10 5
14 15 10 22 -8 54 14 47 33 -5 14 -3 14 11 3 22 -19 39 -11 44 19 3 25 48 69
71 69 6 0 12 11 12 24 0 28 27 34 194 42 60 3 118 10 130 14 11 5 79 9 149 8
113 -1 127 -3 121 -17z m2443 13 c-3 -3 -12 -4 -19 -1 -8 3 -5 6 6 6 11 1 17
-2 13 -5z m53 -48 c0 -11 -19 -15 -25 -6 -3 5 1 10 9 10 9 0 16 -2 16 -4z
m-134 -29 c-11 -7 -27 -19 -36 -28 -39 -37 -53 -39 -82 -12 -15 15 -38 27 -50
29 -13 1 -34 4 -48 5 -24 3 107 14 195 17 35 1 37 -1 21 -11z m306 1 c-17 -8
-26 -8 -34 0 -9 9 -4 12 23 11 32 0 33 -1 11 -11z m-892 -78 c0 -5 -2 -10 -4
-10 -3 0 -8 5 -11 10 -3 6 -1 10 4 10 6 0 11 -4 11 -10z m-2410 -105 c0 -8 -9
-15 -21 -15 -11 0 -17 5 -14 10 4 6 11 8 16 5 5 -4 9 -1 9 4 0 6 2 11 5 11 3
0 5 -7 5 -15z m783 -14 c-4 -16 -8 -17 -18 -8 -10 10 -10 13 4 19 9 4 17 7 18
7 0 1 -1 -8 -4 -18z m-562 -18 c-8 -15 -10 -15 -11 -2 0 17 10 32 18 25 2 -3
-1 -13 -7 -23z m39 17 c0 -5 -5 -10 -11 -10 -5 0 -7 5 -4 10 3 6 8 10 11 10 2
0 4 -4 4 -10z m-77 -30 c7 -6 21 -17 32 -25 19 -15 19 -15 -7 -11 -36 6 -48
14 -48 32 0 17 6 18 23 4z m593 -28 c-4 -3 -11 0 -16 8 -15 24 -11 33 6 15 9
-9 13 -19 10 -23z m-681 8 c-3 -5 -12 -10 -18 -10 -7 0 -6 4 3 10 19 12 23 12
15 0z m135 -39 c0 -5 -9 -11 -20 -14 -13 -3 -18 -11 -14 -20 3 -10 -4 -16 -25
-20 -17 -4 -32 -14 -36 -27 -7 -22 -45 -48 -45 -30 0 6 6 13 14 16 8 3 12 12
9 20 -3 8 1 14 11 14 9 0 16 5 16 10 0 6 -7 10 -16 10 -8 0 -12 5 -9 11 4 5
12 8 18 6 7 -2 30 4 52 14 47 22 45 21 45 10z m-183 -7 c-3 -3 -12 -4 -19 -1
-8 3 -5 6 6 6 11 1 17 -2 13 -5z m-22 -24 c17 -7 14 -9 -13 -9 -20 -1 -31 3
-27 9 7 12 13 12 40 0z m-65 -20 c0 -5 -4 -10 -10 -10 -5 0 -10 5 -10 10 0 6
5 10 10 10 6 0 10 -4 10 -10z m-65 -40 c3 -5 -1 -10 -9 -10 -9 0 -16 5 -16 10
0 6 4 10 9 10 6 0 13 -4 16 -10z m1667 -22 c-9 -9 -42 -1 -42 12 0 4 12 5 26
2 15 -3 22 -8 16 -14z m28 -27 c0 -16 -44 -21 -60 -6 -13 13 -10 15 23 15 20
0 37 -4 37 -9z m-1650 -11 c0 -5 -4 -10 -10 -10 -5 0 -10 5 -10 10 0 6 5 10
10 10 6 0 10 -4 10 -10z m115 0 c-3 -5 -10 -10 -16 -10 -5 0 -9 5 -9 10 0 6 7
10 16 10 8 0 12 -4 9 -10z m3121 -250 c0 -10 -2 -17 -4 -15 -3 2 -17 -2 -33
-10 -36 -19 -56 -19 -56 0 0 11 12 15 41 15 38 1 40 2 22 15 -19 15 -19 15 5
15 18 0 25 -5 25 -20z m-121 -40 c-3 -5 -13 -10 -21 -10 -8 0 -14 5 -14 10 0
6 9 10 21 10 11 0 17 -4 14 -10z"/>
<path d="M850 760 c0 -5 5 -10 10 -10 6 0 10 5 10 10 0 6 -4 10 -10 10 -5 0
-10 -4 -10 -10z"/>
<path d="M850 700 c0 -5 7 -7 15 -4 8 4 15 8 15 10 0 2 -7 4 -15 4 -8 0 -15
-4 -15 -10z"/>
<path d="M835 580 c-3 -5 -1 -10 4 -10 6 0 11 5 11 10 0 6 -2 10 -4 10 -3 0
-8 -4 -11 -10z"/>
<path d="M875 570 c-16 -7 -17 -9 -3 -9 9 -1 20 4 23 9 7 11 7 11 -20 0z"/>
<path d="M3571 3799 c-14 -5 -38 -8 -54 -5 -31 5 -66 -9 -81 -33 -6 -10 -10
-10 -15 -2 -4 6 -15 9 -24 5 -9 -3 -14 -10 -11 -15 3 -5 -13 -12 -36 -15 -22
-4 -40 -12 -40 -18 0 -7 -18 -11 -45 -10 -41 1 -45 -1 -39 -20 6 -19 6 -19
-11 -3 -20 21 -34 14 -16 -7 10 -12 8 -18 -13 -31 -30 -20 -33 -37 -10 -59 8
-9 11 -16 5 -16 -6 0 -11 -4 -11 -9 0 -11 38 -24 65 -22 36 3 105 23 105 32 0
4 18 13 41 19 37 10 43 9 55 -9 8 -11 21 -18 28 -15 8 3 17 1 21 -5 3 -6 14
-11 24 -11 10 0 26 -9 36 -20 10 -11 24 -20 32 -20 7 0 13 -4 13 -9 0 -5 39
-9 88 -10 48 0 116 -3 152 -7 57 -5 68 -3 88 16 29 27 28 36 -8 52 -16 7 -31
19 -31 25 -2 22 -4 28 -12 41 -6 8 0 12 20 12 l28 1 -30 14 c-16 7 -24 14 -17
14 22 2 13 20 -13 27 -15 4 -25 13 -25 24 0 12 -15 24 -45 36 -25 9 -45 20
-45 25 0 4 -13 10 -30 14 -16 4 -30 11 -30 16 0 12 -78 11 -109 -2z"/>
<path d="M420 3139 c0 -5 5 -7 10 -4 6 3 10 8 10 11 0 2 -4 4 -10 4 -5 0 -10
-5 -10 -11z"/>
<path d="M726 3116 c3 -9 11 -16 16 -16 13 0 5 23 -10 28 -7 2 -10 -2 -6 -12z"/>
<path d="M777 3106 c-8 -21 32 -44 44 -25 6 11 11 11 21 1 6 -6 22 -12 35 -12
13 0 23 -6 24 -12 0 -7 4 -4 9 7 10 26 -3 40 -43 41 -18 0 -44 4 -58 8 -20 6
-28 3 -32 -8z"/>
<path d="M3580 2811 c0 -11 29 -18 53 -13 30 6 18 22 -18 22 -19 0 -35 -4 -35
-9z"/>
<path d="M3673 2693 c27 -26 41 -33 49 -25 14 14 -38 61 -67 62 -16 0 -13 -6
18 -37z"/>
<path d="M1333 2434 c-53 -24 -71 -54 -33 -54 45 0 131 57 108 72 -17 10 -15
11 -75 -18z"/>
<path d="M1660 2370 c0 -6 -6 -10 -12 -9 -21 2 -58 -13 -58 -23 0 -6 11 -8 25
-6 14 3 25 1 25 -3 0 -5 5 -9 11 -9 6 0 9 7 5 15 -3 8 2 18 11 23 11 6 12 11
4 16 -6 4 -11 2 -11 -4z"/>
<path d="M2550 2336 c0 -2 7 -6 15 -10 8 -3 15 -1 15 4 0 6 -7 10 -15 10 -8 0
-15 -2 -15 -4z"/>
<path d="M2457 2266 c-4 -10 1 -12 14 -9 23 6 24 9 5 16 -8 3 -17 0 -19 -7z"/>
<path d="M1025 2260 c3 -5 11 -10 16 -10 6 0 7 5 4 10 -3 6 -11 10 -16 10 -6
0 -7 -4 -4 -10z"/>
<path d="M2762 1764 c-25 -12 -23 -13 31 -12 37 1 56 5 54 12 -5 15 -51 15
-85 0z"/>
<path d="M4195 1361 c-3 -6 -17 -11 -31 -11 -13 0 -24 -4 -24 -10 0 -14 49 -8
62 7 6 8 8 16 5 19 -3 3 -8 1 -12 -5z"/>
<path d="M0 1301 c0 -12 28 -22 35 -12 3 5 -2 12 -11 15 -21 8 -24 8 -24 -3z"/>
<path d="M50 1299 c0 -5 5 -7 10 -4 6 3 10 8 10 11 0 2 -4 4 -10 4 -5 0 -10
-5 -10 -11z"/>
<path d="M3940 1299 c0 -5 5 -7 10 -4 6 3 10 8 10 11 0 2 -4 4 -10 4 -5 0 -10
-5 -10 -11z"/>
<path d="M4095 1301 c-19 -4 -26 -9 -18 -14 15 -9 63 2 63 14 0 10 -1 10 -45
0z"/>
<path d="M1168 433 c7 -3 16 -2 19 1 4 3 -2 6 -13 5 -11 0 -14 -3 -6 -6z"/>
<path d="M2746 385 c4 -8 7 -15 9 -15 2 0 5 7 9 15 3 9 0 15 -9 15 -9 0 -12
-6 -9 -15z"/>
<path d="M2857 384 c-8 -8 1 -24 14 -24 5 0 9 7 9 15 0 15 -12 20 -23 9z"/>
<path d="M2780 370 c0 -5 5 -10 11 -10 5 0 7 5 4 10 -3 6 -8 10 -11 10 -2 0
-4 -4 -4 -10z"/>
<path d="M3180 371 c0 -5 5 -13 10 -16 6 -3 10 -2 10 4 0 5 -4 13 -10 16 -5 3
-10 2 -10 -4z"/>
<path d="M1455 340 c-3 -5 3 -10 14 -10 12 0 21 5 21 10 0 6 -6 10 -14 10 -8
0 -18 -4 -21 -10z"/>
<path d="M2460 341 c0 -6 4 -13 10 -16 6 -3 7 1 4 9 -7 18 -14 21 -14 7z"/>
<path d="M2152 325 c-7 -8 -9 -15 -4 -15 5 0 15 7 22 15 16 19 -1 19 -18 0z"/>
<path d="M2220 320 c0 -5 5 -10 10 -10 6 0 10 5 10 10 0 6 -4 10 -10 10 -5 0
-10 -4 -10 -10z"/>
<path d="M1840 300 c0 -5 5 -10 10 -10 6 0 10 5 10 10 0 6 -4 10 -10 10 -5 0
-10 -4 -10 -10z"/>
<path d="M2380 301 c0 -5 5 -13 10 -16 6 -3 10 -2 10 4 0 5 -4 13 -10 16 -5 3
-10 2 -10 -4z"/>
<path d="M3230 280 c0 -5 5 -10 11 -10 5 0 7 5 4 10 -3 6 -8 10 -11 10 -2 0
-4 -4 -4 -10z"/>
<path d="M1202 265 c-7 -8 -9 -15 -4 -15 5 0 15 7 22 15 16 19 -1 19 -18 0z"/>
<path d="M2805 260 c-3 -5 -15 -10 -26 -10 -10 0 -19 -4 -19 -10 0 -18 39 -10
50 10 11 20 7 29 -5 10z"/>
<path d="M1650 230 c-13 -8 -13 -10 2 -10 9 0 20 5 23 10 8 13 -5 13 -25 0z"/>
<path d="M1705 230 c-3 -5 1 -10 10 -10 9 0 13 5 10 10 -3 6 -8 10 -10 10 -2
0 -7 -4 -10 -10z"/>
<path d="M2528 233 c7 -3 16 -2 19 1 4 3 -2 6 -13 5 -11 0 -14 -3 -6 -6z"/>
<path d="M1610 213 c0 -25 33 -33 46 -11 5 7 3 8 -5 4 -7 -5 -18 0 -26 10 -14
18 -14 18 -15 -3z"/>
<path d="M1330 213 c0 -6 5 -15 10 -18 20 -12 9 -22 -21 -19 -27 3 -30 2 -19
-12 7 -8 19 -13 26 -10 7 3 16 1 20 -5 8 -13 57 -2 106 23 23 12 45 17 58 13
12 -4 28 -1 36 6 13 11 14 9 9 -14 -6 -23 -4 -27 15 -27 14 0 19 -4 15 -12 -4
-7 3 -2 14 11 22 25 20 41 -6 41 -12 0 -13 3 -4 13 9 11 2 13 -37 10 -76 -6
-86 -8 -101 -17 -8 -5 -16 -4 -22 5 -5 8 -9 9 -9 3 0 -18 -62 -15 -77 4 -7 10
-13 12 -13 5z"/>
<path d="M857 204 c-9 -9 2 -24 17 -24 7 0 21 7 32 15 18 14 17 14 -12 15 -17
0 -34 -3 -37 -6z"/>
<path d="M1998 185 c-2 -3 -35 -6 -71 -7 -37 -1 -67 -6 -67 -10 0 -14 119 -6
138 8 9 8 14 14 11 14 -3 0 -8 -2 -11 -5z"/>
<path d="M2710 180 c0 -5 5 -10 10 -10 6 0 10 5 10 10 0 6 -4 10 -10 10 -5 0
-10 -4 -10 -10z"/>
<path d="M3045 144 c9 -68 22 -76 21 -13 -1 34 -6 54 -14 57 -11 3 -13 -6 -7
-44z"/>
<path d="M3190 179 c0 -16 47 -66 54 -58 2 2 -9 20 -25 39 -18 21 -29 28 -29
19z"/>
<path d="M728 173 c-10 -2 -18 -9 -18 -15 0 -5 6 -8 14 -5 9 4 13 0 11 -11 -2
-9 -4 -21 -4 -27 -1 -7 -4 -7 -9 0 -11 16 -49 34 -56 28 -3 -3 -1 -12 4 -18 7
-8 4 -19 -9 -34 -11 -12 -22 -22 -25 -22 -28 3 -34 -1 -29 -20 3 -11 9 -17 12
-11 11 16 51 21 51 6 0 -21 28 -17 40 6 6 11 28 31 50 45 48 31 81 65 73 78
-3 5 -9 4 -13 -4 -7 -10 -11 -10 -24 1 -9 7 -20 10 -23 6 -4 -4 -1 -11 6 -15
9 -6 10 -11 2 -15 -16 -10 -31 2 -24 19 5 15 2 16 -29 8z m-23 -93 c-27 -12
-43 -12 -25 0 8 5 22 9 30 9 10 0 8 -3 -5 -9z"/>
<path d="M2908 173 c-10 -2 -18 -9 -18 -15 0 -5 7 -7 16 -4 9 3 22 6 30 6 9 0
12 5 9 10 -6 10 -9 11 -37 3z"/>
<path d="M2226 151 c-4 -5 3 -7 14 -4 23 6 26 13 6 13 -8 0 -17 -4 -20 -9z"/>
<path d="M1543 126 c5 -16 27 -19 27 -3 0 7 -7 14 -15 14 -9 0 -14 -5 -12 -11z"/>
<path d="M3170 133 c1 -14 30 -47 36 -41 10 11 -7 48 -22 48 -8 0 -14 -3 -14
-7z"/>
<path d="M614 105 c-16 -12 -17 -14 -3 -15 9 0 19 7 23 15 7 19 5 19 -20 0z"/>
<path d="M2120 95 c-13 -14 -19 -25 -13 -25 12 0 48 38 41 45 -2 3 -15 -6 -28
-20z"/>
<path d="M485 100 c-3 -5 -1 -10 4 -10 6 0 11 5 11 10 0 6 -2 10 -4 10 -3 0
-8 -4 -11 -10z"/>
<path d="M3500 70 c6 -11 13 -20 16 -20 2 0 0 9 -6 20 -6 11 -13 20 -16 20 -2
0 0 -9 6 -20z"/>
<path d="M3085 50 c3 -5 13 -10 21 -10 8 0 12 4 9 10 -3 6 -13 10 -21 10 -8 0
-12 -4 -9 -10z"/>
<path d="M3440 48 c0 -9 5 -20 10 -23 13 -8 13 5 0 25 -8 13 -10 13 -10 -2z"/>
<path d="M2320 40 c-8 -5 -10 -10 -5 -10 6 0 17 5 25 10 8 5 11 10 5 10 -5 0
-17 -5 -25 -10z"/>
<path d="M2520 35 c0 -8 4 -15 10 -15 5 0 7 7 4 15 -4 8 -8 15 -10 15 -2 0 -4
-7 -4 -15z"/>
<path d="M630 10 c0 -5 4 -10 9 -10 6 0 13 5 16 10 3 6 -1 10 -9 10 -9 0 -16
-4 -16 -10z"/>
<path d="M1308 3 c7 -3 16 -2 19 1 4 3 -2 6 -13 5 -11 0 -14 -3 -6 -6z"/>
</g>
</svg>
